<svg xmlns="http://www.w3.org/2000/svg" viewBox="0 0 64 64" id="industry"><path fill="#a3cde9" d="M57,4h-16c-.55,0-1,.45-1,1v4h18V5c0-.55-.45-1-1-1Z"></path><path fill="#eb455f" d="M30.95 36.68H9.05l4.23-12.68 1.4-4.2c.36-1.08 1.36-1.8 2.5-1.8h5.64c1.14 0 2.14.72 2.5 1.8l1.4 4.2 4.23 12.68zM60 8h-22c-.55 0-1 .45-1 1v27.53h1v25.47h22c.55 0 1-.45 1-1V9c0-.55-.45-1-1-1z"></path><rect width="9" height="17" x="47" y="44" fill="#a3cde9"></rect><path fill="#5f6f94" d="M45.22,36H5.78c-1.53,0-2.78,1.25-2.78,2.78v22.22c0,.55,.45,1,1,1H47c.55,0,1-.45,1-1v-22.22c0-1.53-1.25-2.78-2.78-2.78Z"></path><path fill="#b2b2b2" d="M37,50H15c-.55,0-1,.45-1,1v10h24v-10c0-.55-.45-1-1-1Z"></path><rect width="5.33" height="8" x="20.67" y="40" fill="#d8d9cf"></rect><rect width="5.33" height="8" x="31.33" y="40" fill="#d8d9cf"></rect><rect width="5.33" height="8" x="15.33" y="40" fill="#b2b2b2"></rect><rect width="5.33" height="8" x="26" y="40" fill="#b2b2b2"></rect><rect width="5.33" height="8" x="36.67" y="40" fill="#b2b2b2"></rect><rect width="5.33" height="8" x="10" y="40" fill="#d8d9cf"></rect><rect width="62" height="2" x="1" y="60" fill="#595260" rx="1" ry="1"></rect><rect width="8" height="8" x="40" y="23" fill="#ffffd0" rx="1" ry="1"></rect><rect width="8" height="8" x="50" y="23" fill="#ffffd0" rx="1" ry="1"></rect><rect width="8" height="8" x="50" y="33" fill="#ffffd0" rx="1" ry="1"></rect><rect width="16" height="8" x="41" y="13" fill="#ffffd0" rx="1" ry="1"></rect><path fill="#ffffd0" d="M26.72,24H13.28l1.4-4.2c.36-1.08,1.36-1.8,2.5-1.8h5.64c1.14,0,2.14,.72,2.5,1.8l1.4,4.2Z"></path><path fill="#b7c4cf" d="M24.71,5c-.41,0-.81,.03-1.2,.09-.45-2.33-2.59-4.09-5.15-4.09-2.89,0-5.24,2.24-5.24,5,0,.56,.1,1.11,.29,1.64-1.48,.72-2.41,1.98-2.41,3.36,0,3.87,4.49,3.96,6,4.02v1.98h7v-1.94c0-.06,.04-.1,.1-.1,4.26-.32,6.9-2.22,6.9-4.96s-2.82-5-6.29-5Z"></path></svg>